{
  "title": "Tomorrowland.2015.HD-TS.XVID.AC3.HQ.Hive-CM8",
  "uid": 12047449,
  "size": 1930679573,
  "categoryP": "video",
  "categoryS": "movies",
  "magnet": "?xt=urn:btih:c387093c86688754e235347f0f97d3d6c87026ca&amp;dn=Tomorrowland.2015.HD-TS.XVID.AC3.HQ.Hive-CM8&amp;tr=udp%3A%2F%2Ftracker.openbittorrent.com%3A80&amp;tr=udp%3A%2F%2Fopen.demonii.com%3A1337&amp;tr=udp%3A%2F%2Ftracker.coppersurfer.tk%3A6969&amp;tr=udp%3A%2F%2Fexodus.desync.com%3A6969",
  "seeders": 261,
  "leechers": 60,
  "uploader": "xxxlavalxxx",
  "files": 4,
  "time": 1434928265,
  "description": " &lt;a href=&quot;http://extraimago.com/image/NvE&quot; rel=&quot;nofollow&quot; target=&quot;_NEW&quot;&gt;http://extraimago.com/image/NvE&lt;/a&gt;\n &lt;a href=&quot;\nhttp://www.imdb.com/title/tt1964418/&quot; rel=&quot;nofollow&quot; target=&quot;_NEW&quot;&gt;\nhttp://www.imdb.com/title/tt1964418/&lt;/a&gt;\n\n\nBound by a shared destiny, a teen bursting with scientific curiosity and a former boy-genius inventor embark on a mission to unearth the secrets of a place somewhere in time and space that exists in their collective memory.\n\nDirector: Brad Bird\nWriters: Damon Lindelof (screenplay), Brad Bird (screenplay)\nStars: George Clooney, Britt Robertson, Hugh Laurie\nGenres: Action | Adventure | Mystery | Sci-Fi\nCountry: USA\nLanguage: English\n\n\nTomorrowland.2015.HD-TS.XVID.AC3.HQ.Hive-CM8\n\nThx Hive\n\nCM8 Doing It Right The First Time\n\nSources:\nVideo: 1080p HDCAM from Incoming (big thx)\nAudio: Line from Mr.Seen-Simple\nthx guys\n\nNotes:\nnot a day 1 release,lol, but it was needed\nThe versions out so far were far from great, the last one was at least watchable-ish but half the screen was cropped, cant enjoy a movie like this\nIncoming was so nice to get me a perfect new cam for this, full-widescreen, nothing is cropped from any side\nno movements,no focus issues, you cant do a better cam than this\nso instead of reproducing same thing that already been done i work on this new source so you guys have new thing and got it pretty sexy &lt;&lt;&lt;&lt;&lt;&lt; :lol:\n\nEncode:\nquality was already very very nice, some flicker here and there which i removed as needed, adjusted colours and removed some noise in the video\nDid avi the usual size and 720p mkv for the quality hunters\nAudio is the Line from Mr.Seen-Simple which i cleaned the usual way and lipsynced it to my videos\n\nit wont get better than this, will do me till retail\nenjoy\n\nVideo: 720x384@bitrate 1800 2pass\nAudio: Line AC3 2.0 Stereo\nSample:yes included\n\nPS:\nQuality: Video:10, Audio:9 &lt;a href=&quot;\nhttp://www.imdb.com/title/tt1964418/&quot; rel=&quot;nofollow&quot; target=&quot;_NEW&quot;&gt;\nhttp://www.imdb.com/title/tt1964418/&lt;/a&gt;\n\nGeneral\nComplete name: Tomorrowland.2015.HD-TS.XVID.AC3.HQ.Hive-CM8.avi\nFormat: AVI\nFormat/Info: Audio Video Interleave\nFile size: 1.75 GiB\nDuration: 2h 1mn\nOverall bit rate: 2 066 Kbps\nWriting application: Nandub v1.0rc2\nWriting library: Nandub build 1853/release\n\nVideo\nID: 0\nFormat: MPEG-4 Visual\nFormat profile: Advanced Simple@L5\nFormat settings, BVOP: 2\nFormat settings, QPel: Yes\nFormat settings, GMC: No warppoints\nFormat settings, Matrix: Default (H.263)\nMuxing mode: Packed bitstream\nCodec ID: XVID\nCodec ID/Hint: XviD\nDuration: 2h 1mn\nBit rate: 1 798 Kbps\nWidth: 720 pixels\nHeight: 384 pixels\nDisplay aspect ratio: 1.85:1\nFrame rate: 30.000 fps\nColor space: YUV\nChroma subsampling: 4:2:0\nBit depth: 8 bits\nScan type: Progressive\nCompression mode: Lossy\nBits/(Pixel*Frame): 0.217\nStream size: 1.53 GiB (87%)\nWriting library: XviD 1.2.1 (UTC 2008-12-04)\n\nAudio\nID: 1\nFormat: AC-3\nFormat/Info: Audio Coding 3\nMode extension: CM (complete main)\nFormat settings, Endianness: Big\nCodec ID: 2000\nDuration: 2h 1mn\nBit rate mode: Constant\nBit rate: 256 Kbps\nChannel(s): 2 channels\nChannel positions: Front: L R\nSampling rate: 48.0 KHz\nBit depth: 16 bits\nCompression mode: Lossy\nDelay relative to video: 1ms\nStream size: 222 MiB (12%)\nAlignment: Split accross interleaves\nInterleave, duration: 33 ms (1.00 video frame)\nInterleave, preload duration: 500 ms\n\n &lt;a href=&quot;\nhttp://extraimago.com/image/nxP&quot; rel=&quot;nofollow&quot; target=&quot;_NEW&quot;&gt;\nhttp://extraimago.com/image/nxP&lt;/a&gt; &lt;a href=&quot;\nhttp://extraimago.com/image/nxX&quot; rel=&quot;nofollow&quot; target=&quot;_NEW&quot;&gt;\nhttp://extraimago.com/image/nxX&lt;/a&gt; &lt;a href=&quot;\nhttp://extraimago.com/image/nxg&quot; rel=&quot;nofollow&quot; target=&quot;_NEW&quot;&gt;\nhttp://extraimago.com/image/nxg&lt;/a&gt; &lt;a href=&quot;\nhttp://extraimago.com/image/nx5&quot; rel=&quot;nofollow&quot; target=&quot;_NEW&quot;&gt;\nhttp://extraimago.com/image/nx5&lt;/a&gt; &lt;a href=&quot;\nhttp://extraimago.com/image/nxD&quot; rel=&quot;nofollow&quot; target=&quot;_NEW&quot;&gt;\nhttp://extraimago.com/image/nxD&lt;/a&gt; &lt;a href=&quot;\nhttp://extraimago.com/image/nxF&quot; rel=&quot;nofollow&quot; target=&quot;_NEW&quot;&gt;\nhttp://extraimago.com/image/nxF&lt;/a&gt; &lt;a href=&quot;\nhttp://extraimago.com/image/nxH&quot; rel=&quot;nofollow&quot; target=&quot;_NEW&quot;&gt;\nhttp://extraimago.com/image/nxH&lt;/a&gt; &lt;a href=&quot;\nhttp://extraimago.com/image/nxk&quot; rel=&quot;nofollow&quot; target=&quot;_NEW&quot;&gt;\nhttp://extraimago.com/image/nxk&lt;/a&gt;",
  "parsed": {
    "xt": "urn:btih:c387093c86688754e235347f0f97d3d6c87026ca",
    "dn": "Tomorrowland.2015.HD-TS.XVID.AC3.HQ.Hive-CM8",
    "tr": [
      "udp://exodus.desync.com:6969",
      "udp://open.demonii.com:1337",
      "udp://tracker.coppersurfer.tk:6969",
      "udp://tracker.openbittorrent.com:80"
    ],
    "infoHash": "c387093c86688754e235347f0f97d3d6c87026ca",
    "infoHashBuffer": {
      "type": "Buffer",
      "data": [
        195,
        135,
        9,
        60,
        134,
        104,
        135,
        84,
        226,
        53,
        52,
        127,
        15,
        151,
        211,
        214,
        200,
        112,
        38,
        202
      ]
    },
    "name": "Tomorrowland.2015.HD-TS.XVID.AC3.HQ.Hive-CM8",
    "announce": [
      "udp://exodus.desync.com:6969",
      "udp://open.demonii.com:1337",
      "udp://tracker.coppersurfer.tk:6969",
      "udp://tracker.openbittorrent.com:80"
    ],
    "urlList": []
  },
  "previous": 61,
  "peers": 14,
  "last_updated": "2016-12-27T12:21:35.003Z"
}